{
    "asset" : {
        "generator" : "Khronos glTF Blender I/O v1.7.33",
        "version" : "2.0"
    },
    "extensionsUsed" : [
        "KHR_lights_punctual"
    ],
    "extensionsRequired" : [
        "KHR_lights_punctual"
    ],
    "extensions" : {
        "KHR_lights_punctual" : {
            "lights" : [
                {
                    "color" : [
                        1,
                        1,
                        1
                    ],
                    "intensity" : 1000,
                    "spot" : {
                        "innerConeAngle" : 0.9086073394480358,
                        "outerConeAngle" : 1.068949818611145
                    },
                    "type" : "spot",
                    "name" : "Spot"
                }
            ]
        }
    },
    "scene" : 0,
    "scenes" : [
        {
            "name" : "Scene",
            "nodes" : [
                0,
                2
            ]
        }
    ],
    "nodes" : [
        {
            "mesh" : 0,
            "name" : "deskproject",
            "translation" : [
                1.135279893875122,
                3.0012407302856445,
                0.15073388814926147
            ]
        },
        {
            "extensions" : {
                "KHR_lights_punctual" : {
                    "light" : 0
                }
            },
            "name" : "Spot_Orientation",
            "rotation" : [
                -0.7071067690849304,
                0,
                0,
                0.7071067690849304
            ]
        },
        {
            "children" : [
                1
            ],
            "name" : "Spot",
            "rotation" : [
                0.01692510023713112,
                -0.09455858916044235,
                0.32527175545692444,
                0.9407287240028381
            ],
            "translation" : [
                -1.7730419635772705,
                9.327533721923828,
                -1.9702081680297852
            ]
        }
    ],
    "materials" : [
        {
            "doubleSided" : true,
            "name" : "palette",
            "pbrMetallicRoughness" : {
                "baseColorTexture" : {
                    "index" : 0
                },
                "metallicFactor" : 0
            }
        }
    ],
    "meshes" : [
        {
            "name" : "desk-project",
            "primitives" : [
                {
                    "attributes" : {
                        "POSITION" : 0,
                        "NORMAL" : 1,
                        "TEXCOORD_0" : 2
                    },
                    "indices" : 3,
                    "material" : 0
                }
            ]
        }
    ],
    "textures" : [
        {
            "sampler" : 0,
            "source" : 0
        }
    ],
    "images" : [
        {
            "bufferView" : 4,
            "mimeType" : "image/png",
            "name" : "desk-project"
        }
    ],
    "accessors" : [
        {
            "bufferView" : 0,
            "componentType" : 5126,
            "count" : 5161,
            "max" : [
                3.029644012451172,
                2.0987586975097656,
                3.1501529216766357
            ],
            "min" : [
                -2.5703558921813965,
                -3.0012412071228027,
                -3.4498465061187744
            ],
            "type" : "VEC3"
        },
        {
            "bufferView" : 1,
            "componentType" : 5126,
            "count" : 5161,
            "type" : "VEC3"
        },
        {
            "bufferView" : 2,
            "componentType" : 5126,
            "count" : 5161,
            "type" : "VEC2"
        },
        {
            "bufferView" : 3,
            "componentType" : 5123,
            "count" : 6276,
            "type" : "SCALAR"
        }
    ],
    "bufferViews" : [
        {
            "buffer" : 0,
            "byteLength" : 61932,
            "byteOffset" : 0
        },
        {
            "buffer" : 0,
            "byteLength" : 61932,
            "byteOffset" : 61932
        },
        {
            "buffer" : 0,
            "byteLength" : 41288,
            "byteOffset" : 123864
        },
        {
            "buffer" : 0,
            "byteLength" : 12552,
            "byteOffset" : 165152
        },
        {
            "buffer" : 0,
            "byteLength" : 218,
            "byteOffset" : 177704
        }
    ],
    "samplers" : [
        {
            "magFilter" : 9729,
            "minFilter" : 9987
        }
    ],
    "buffers" : [
        {
            "byteLength" : 177924,
            "uri" : "data:application/octet-stream;base64,"
        }
    ]
}
